<?xml version="1.0" encoding="utf-8"?>
<!-- Generator: Adobe Illustrator 16.0.4, SVG Export Plug-In . SVG Version: 6.00 Build 0)  -->
<!DOCTYPE svg PUBLIC "-//W3C//DTD SVG 1.1//EN" "http://www.w3.org/Graphics/SVG/1.1/DTD/svg11.dtd">
<svg version="1.1" id="Layer_1" xmlns="http://www.w3.org/2000/svg" xmlns:xlink="http://www.w3.org/1999/xlink" x="0px" y="0px"
	 width="432px" height="432px" viewBox="0 0 432 432" enable-background="new 0 0 432 432" xml:space="preserve">
<g>
	<g>
		<path fill="none" d="M-6.108,436.863c0-147.278,0-294.557,0-441.917c147.214,0,294.457,0,441.834,0c0,147.25,0,294.583,0,441.917
			C288.516,436.863,141.218,436.863-6.108,436.863z M168.719,329.24c-2.388,4.594-5.03,8.914-5.937,13.954
			c-1.94,10.786,0.78,24.128,18.474,24.64c12.365,0.357,23.44-3.417,34.396-8.277c5.861-2.601,11.332-5.96,17.061-9.245
			c6.324,10.214,12.552,20.037,19.316,29.498c7.784,10.889,15.689,21.697,26.358,30.048c2.89,2.264,5.896,4.484,10.635,4.52
			c-18.857-21.819-34.432-45.087-47.825-69.982c10.271-7.625,19.479-15.636,28.061-24.363c8.677-8.825,16.627-18.275,24.014-28.092
			c2.238,0,4.244-0.102,6.238,0.017c22.053,1.308,44.001,0.338,65.721-3.72c13.312-2.487,26.344-6.049,37.232-14.808
			c11.878-9.554,14.525-22.131,7.518-35.717c-1.72-3.331-3.771-6.442-6.118-9.365c-9.376-11.673-20.795-21.022-33.144-29.342
			c-1.698-1.145-3.771-1.891-5.197-3.906c1.577-0.838,3.016-0.735,4.414-0.867c5.017-0.475,9.896-1.498,14.669-3.203
			c10.424-3.727,13.864-11.931,9.818-23.317c-0.617-1.737-1.622-3.356-2.579-4.952c-6.343-10.572-15.184-18.708-25.261-25.582
			c-4.232-2.886-8.625-5.538-13.018-8.343c4.287-9.173,8.565-18.084,12.634-27.089c5.908-13.08,11.711-26.229,14.791-40.328
			c0.842-3.854,2.14-8.019-0.836-12.252c-8.765,26.983-22.493,50.949-37.164,74.708c-22.978-10.385-47.102-14.627-71.597-17.667
			c-0.742-1.303-1.461-2.529-2.147-3.773c-9.261-16.753-19.392-32.951-31.203-48.036c-9.067-11.58-18.604-22.745-31.372-30.515
			c-13.802-8.398-25.306-6.712-36.204,5.246c-1.83,2.008-3.476,4.221-4.956,6.502c-5.881,9.062-8.955,19.199-11.001,29.688
			c-1.696,8.691-2.552,17.489-2.802,26.92c-3.394-4.303-6.183-8.258-9.397-11.833c-9.089-10.112-21.852-9.549-29.738,1.424
			c-6.657,9.263-10.428,19.694-11.672,31.09c-0.827,7.573-0.714,15.161-0.608,22.842c-1.193,0.22-2.019,0.498-2.847,0.506
			c-11.083,0.105-22.129,0.853-33.145,1.982c-12.721,1.304-25.387,3-37.396,7.747c-3.663,1.448-7.365,2.927-10.446,6.713
			c28.348-6.131,56.357-7.427,84.852-6.687c2.829,25.466,10.047,49.386,20.618,72.209c-9.75,14.841-18.385,29.901-25.493,45.8
			c-6.77,15.139-12.857,30.604-13.057,47.416c-0.265,22.307,6.342,30.091,27.934,33.108c11.395,1.592,22.267-1.182,32.954-4.759
			C152.679,336.98,160.606,333.008,168.719,329.24z"/>
		<path class="colorable" fill="#ffffff" fill-rule="evenodd" clip-rule="evenodd" d="M168.719,329.24c-8.113,3.768-16.04,7.74-24.454,10.557
			c-10.687,3.577-21.559,6.351-32.954,4.759c-21.592-3.018-28.198-10.802-27.934-33.108c0.2-16.812,6.287-32.277,13.057-47.416
			c7.108-15.898,15.743-30.959,25.493-45.8c-10.571-22.823-17.789-46.743-20.618-72.209c-28.494-0.74-56.503,0.556-84.852,6.687
			c3.081-3.786,6.783-5.266,10.446-6.713c12.009-4.747,24.674-6.442,37.396-7.747c11.016-1.129,22.062-1.877,33.145-1.982
			c0.828-0.008,1.654-0.286,2.847-0.506c-0.105-7.681-0.218-15.27,0.608-22.842c1.244-11.396,5.015-21.827,11.672-31.09
			c7.886-10.974,20.648-11.536,29.738-1.424c3.214,3.575,6.003,7.531,9.397,11.833c0.25-9.432,1.106-18.229,2.802-26.92
			c2.046-10.489,5.12-20.625,11.001-29.688c1.48-2.281,3.126-4.494,4.956-6.502c10.898-11.958,22.402-13.644,36.204-5.246
			c12.769,7.77,22.305,18.935,31.372,30.515c11.812,15.085,21.942,31.283,31.203,48.036c0.687,1.244,1.405,2.47,2.147,3.773
			c24.495,3.041,48.619,7.283,71.597,17.667c14.671-23.758,28.399-47.725,37.164-74.708c2.976,4.233,1.678,8.397,0.836,12.252
			c-3.08,14.099-8.883,27.249-14.791,40.328c-4.068,9.005-8.347,17.917-12.634,27.089c4.393,2.805,8.785,5.457,13.018,8.343
			c10.077,6.874,18.918,15.01,25.261,25.582c0.957,1.595,1.962,3.214,2.579,4.952c4.046,11.386,0.605,19.591-9.818,23.317
			c-4.772,1.705-9.652,2.728-14.669,3.203c-1.398,0.131-2.837,0.029-4.414,0.867c1.427,2.015,3.499,2.761,5.197,3.906
			c12.349,8.319,23.768,17.668,33.144,29.342c2.348,2.923,4.398,6.034,6.118,9.365c7.008,13.586,4.36,26.163-7.518,35.717
			c-10.889,8.759-23.92,12.32-37.232,14.808c-21.72,4.058-43.668,5.027-65.721,3.72c-1.994-0.118-4-0.017-6.238-0.017
			c-7.387,9.816-15.337,19.267-24.014,28.092c-8.582,8.728-17.79,16.738-28.061,24.363c13.394,24.896,28.968,48.163,47.825,69.982
			c-4.739-0.035-7.745-2.256-10.635-4.52c-10.669-8.351-18.574-19.159-26.358-30.048c-6.765-9.461-12.992-19.284-19.316-29.498
			c-5.729,3.285-11.199,6.645-17.061,9.245c-10.955,4.86-22.03,8.635-34.396,8.277c-17.693-0.512-20.414-13.854-18.474-24.64
			C163.689,338.154,166.332,333.834,168.719,329.24z M232.162,326.755c8.022-5.172,14.973-10.743,21.568-16.734
			c22.553-20.488,41.649-43.674,54.82-71.359c4.989-10.488,8.096-21.438,7.384-33.279c-0.246-4.089-1.444-6.648-5.357-8.741
			c-30.104-16.107-62.172-26.665-95.285-34.333c-9.033-2.091-18.146-3.833-26.736-5.635c0-5.786,0-11.153,0-16.824
			c20.661,2.001,40.307,6.096,59.87,10.634c19.577,4.542,38.789,10.398,58.445,17.274c-2.054-5.208-4.467-9.108-6.982-12.939
			c-2.449-3.732-5.241-7.206-8.303-10.462c-3.018-3.208-6.313-6.131-9.596-9.074c13.518,6.917,24.772,16.426,33.614,29.319
			c5.444-7.849,10.513-15.157,15.593-22.481c-1.736-1.668-3.846-2.267-5.796-3.125c-11.572-5.095-23.484-9.267-35.637-12.714
			c-25.414-7.21-51.17-10.684-77.519-6.276c-11.609,1.941-22.227,6.446-32.259,13.066c1.487,45.625,12.991,89.064,27.095,132.077
			c-5.05,2.91-9.684,5.973-15.369,7.605c-16.37-37.806-27.964-76.781-34.447-118.098c-3.987,4.926-5.544,9.881-7.548,14.592
			c-2.023,4.756-3.817,9.609-4.873,14.683c-1.017,4.891-1.882,9.813-2.813,14.721c-4.987-17.448-0.074-33.068,9.016-48.2
			c-9.491-1.048-18.468-2.357-27.76-2.715c0.04,6.272,0.896,11.941,1.663,17.623c4.085,30.261,13.614,58.666,29.458,84.797
			c8.635,14.241,20.2,25.669,35.036,33.774c38.926-24.7,71.387-56.606,102.866-89.86c4.622,3.216,8.953,6.23,13.659,9.505
			c-25.324,32.507-53.095,62.188-84.659,88.851c8.935,1.942,19.516,0.021,45.204-8.002c-13.871,11.089-29.168,15.604-46.418,15.226
			C223.777,309.014,227.618,317.755,232.162,326.755z M179.674,289.422c-23.686-11.836-35.848-33.348-49.367-54.326
			c-3.498,7.088-6.56,13.841-9.069,20.842c-3.489,9.735-6.822,19.516-6.552,30.063c0.19,7.401,2.925,10.984,10.032,13.142
			c7.542,2.287,15.203,2.63,22.994,1.423C158.841,298.841,169.175,294.984,179.674,289.422z M252.359,105.086
			c-4.522-6.092-8.136-11.258-12.061-16.176c-6.38-7.998-13.116-15.726-21.947-21.141c-8.845-5.424-16.251-3.954-22.745,4.14
			c-7.459,9.297-11.751,19.982-13.568,31.683c-0.838,5.396-1.975,10.8-1.554,16.887
			C202.583,106.729,226.638,104.897,252.359,105.086z M304.413,275.218c3.914-0.234,7.203-0.377,10.483-0.636
			c12.491-0.984,24.802-2.728,36.264-8.279c11.392-5.518,15.077-15.185,9.245-26.326c-7.481-14.291-20.116-23.547-33.331-33.097
			C325.909,232.105,316.787,254.028,304.413,275.218z M154.487,136.082c0-0.582,0.062-1.276-0.01-1.956
			c-0.727-6.837-1.591-13.662-2.176-20.511c-0.392-4.587-2.641-8.13-5.699-11.236c-5.921-6.014-11.616-5.555-16.325,1.509
			c-6.396,9.596-7.089,20.524-7.26,32.194C133.608,136.082,143.749,136.082,154.487,136.082z M222.093,332.787
			c-5.62-9.696-10.914-18.829-16.231-28.003c-6.29,4.3-12.177,8.665-18.409,12.465c-3.922,2.391-5.829,5.843-6.961,9.882
			c-2.059,7.35,1.094,11.956,8.705,13.183C201.043,342.224,211.45,338.022,222.093,332.787z M342.93,148.086
			c-5.689,9.261-11.183,18.201-16.767,27.291c6.214,2.911,12.149,5.408,17.8,8.438c3.747,2.009,7.424,2.504,11.551,2.04
			c10.856-1.219,14.243-7.292,9.201-16.886C359.872,159.751,352.134,153.543,342.93,148.086z"/>
		<path fill-rule="evenodd" clip-rule="evenodd" fill="none" d="M232.162,326.755c-4.544-9-8.385-17.741-12.066-27.105
			c17.25,0.379,32.547-4.137,46.418-15.226c-25.688,8.023-36.27,9.944-45.204,8.002c31.564-26.663,59.335-56.344,84.659-88.851
			c-4.706-3.274-9.037-6.289-13.659-9.505c-31.479,33.254-63.939,65.16-102.866,89.86c-14.836-8.105-26.4-19.533-35.036-33.774
			c-15.844-26.132-25.373-54.536-29.458-84.797c-0.767-5.682-1.623-11.35-1.663-17.623c9.292,0.358,18.27,1.667,27.76,2.715
			c-9.09,15.132-14.003,30.752-9.016,48.2c0.932-4.908,1.797-9.831,2.813-14.721c1.056-5.074,2.85-9.927,4.873-14.683
			c2.004-4.711,3.561-9.666,7.548-14.592c6.483,41.316,18.077,80.292,34.447,118.098c5.685-1.633,10.319-4.695,15.369-7.605
			c-14.104-43.013-25.608-86.451-27.095-132.077c10.032-6.621,20.649-11.125,32.259-13.066c26.349-4.408,52.104-0.934,77.519,6.276
			c12.152,3.448,24.064,7.619,35.637,12.714c1.95,0.858,4.06,1.457,5.796,3.125c-5.08,7.325-10.148,14.632-15.593,22.481
			c-8.842-12.894-20.097-22.402-33.614-29.319c3.282,2.943,6.578,5.866,9.596,9.074c3.062,3.256,5.854,6.73,8.303,10.462
			c2.516,3.832,4.929,7.731,6.982,12.939c-19.656-6.876-38.868-12.732-58.445-17.274c-19.562-4.538-39.209-8.633-59.87-10.634
			c0,5.671,0,11.039,0,16.824c8.59,1.801,17.703,3.543,26.736,5.635c33.113,7.667,65.182,18.226,95.285,34.333
			c3.913,2.093,5.111,4.652,5.357,8.741c0.712,11.84-2.395,22.791-7.384,33.279c-13.171,27.686-32.268,50.871-54.82,71.359
			C247.135,316.012,240.185,321.583,232.162,326.755z"/>
		<path fill-rule="evenodd" clip-rule="evenodd" fill="none" d="M179.674,289.422c-10.499,5.562-20.833,9.419-31.961,11.144
			c-7.791,1.207-15.452,0.864-22.994-1.423c-7.107-2.157-9.842-5.74-10.032-13.142c-0.271-10.548,3.063-20.328,6.552-30.063
			c2.509-7.001,5.571-13.754,9.069-20.842C143.826,256.074,155.988,277.586,179.674,289.422z"/>
		<path fill-rule="evenodd" clip-rule="evenodd" fill="none" d="M252.359,105.086c-25.722-0.188-49.776,1.644-71.875,15.393
			c-0.42-6.086,0.716-11.491,1.554-16.887c1.816-11.7,6.108-22.386,13.568-31.683c6.494-8.094,13.9-9.564,22.745-4.14
			c8.831,5.415,15.567,13.143,21.947,21.141C244.224,93.828,247.837,98.994,252.359,105.086z"/>
		<path fill-rule="evenodd" clip-rule="evenodd" fill="none" d="M304.413,275.218c12.374-21.189,21.496-43.112,22.661-68.338
			c13.215,9.55,25.85,18.806,33.331,33.097c5.832,11.142,2.146,20.809-9.245,26.326c-11.462,5.552-23.772,7.295-36.264,8.279
			C311.616,274.841,308.327,274.983,304.413,275.218z"/>
		<path fill-rule="evenodd" clip-rule="evenodd" fill="none" d="M154.487,136.082c-10.738,0-20.879,0-31.47,0
			c0.17-11.669,0.864-22.598,7.26-32.194c4.708-7.063,10.404-7.522,16.325-1.509c3.058,3.106,5.308,6.649,5.699,11.236
			c0.585,6.849,1.45,13.674,2.176,20.511C154.549,134.806,154.487,135.5,154.487,136.082z"/>
		<path fill-rule="evenodd" clip-rule="evenodd" fill="none" d="M222.093,332.787c-10.643,5.235-21.05,9.437-32.897,7.526
			c-7.61-1.227-10.763-5.833-8.705-13.183c1.132-4.039,3.04-7.491,6.961-9.882c6.231-3.8,12.119-8.165,18.409-12.465
			C211.179,313.958,216.473,323.091,222.093,332.787z"/>
		<path fill-rule="evenodd" clip-rule="evenodd" fill="none" d="M342.93,148.086c9.204,5.457,16.942,11.665,21.785,20.882
			c5.042,9.594,1.655,15.667-9.201,16.886c-4.127,0.464-7.804-0.031-11.551-2.04c-5.65-3.03-11.586-5.527-17.8-8.438
			C331.747,166.288,337.24,157.347,342.93,148.086z"/>
	</g>
</g>
</svg>
